<?xml version="1.0" encoding="utf-8"?>
<!-- Generator: Adobe Illustrator 27.6.1, SVG Export Plug-In . SVG Version: 6.00 Build 0)  -->
<svg version="1.1" id="Layer_1" xmlns="http://www.w3.org/2000/svg" xmlns:xlink="http://www.w3.org/1999/xlink" x="0px" y="0px"
	 viewBox="0 0 1000 1000" style="enable-background:new 0 0 1000 1000;" xml:space="preserve">
<style type="text/css">
	.st0{fill:#1DCD6B;}
	.st1{fill:#1A1A1A;}
</style>
<path d="M802.24,1000.01V765.35h-552l281.7-765.4h294.94L651.67,503.67h152L801,273l199.26,0.07v642.6c0,0-4.59,84.44-68.81,84.44
	S802.24,1000.01,802.24,1000.01"/>
<path class="st0" d="M532.91-2.65l-282.67,768h552v234.67c-259.91-0.37-703.27,4.48-725.33-2.67c0,0-77.33-18.67-77.33-101.33
	s0-802.67,0-802.67s0-93.33,88-93.33S532.91-2.65,532.91-2.65z"/>
<path class="st0" d="M998.33,273H801l2.67,230.67h-152L826.89,0h84c0,0,89.37,12.41,89.37,91.52s0,181.55,0,181.55L998.33,273z"/>
<path class="st0" d="M1745.44,625.44"/>
<path class="st0" d="M113.44-11.44"/>
<path class="st0" d="M1526.78,259.22"/>
<path class="st1" d="M1261,334.33"/>
</svg>
